# xmcd
# 
# Track frame offsets:
#     150
#     20309
#     40715
#     60625
#     88105
#     110243
#     127815
#     146868
#     163590
#     194123
#     214098
#     234481
# 
# Disc length: 3600
# 
# Revision: 10
# Processed by: cddbd v1.5.2PL0 Copyright (c) Steve Scherf et al.
# Submitted via: fre:ac v1.0.31
# 
DISCID=ac0e0e0c
DTITLE=Blues - This Ain't No Tribute:  Blues Power - Songs Of Eric Clapton Disc 3
DYEAR=1999
DGENRE=Blues
TTITLE0=Larry McCray - Miss You
TTITLE1=Koko Taylor - Blues Power
TTITLE2=Otis Clay - Wonderful Tonight
TTITLE3=Carl Weathersby - Lay Down Sally
TTITLE4=Buddy Guy - Strange Brew
TTITLE5=Bo Diddley - Before You Accuse Me
TTITLE6=Joe Louis Walker and James Cotton - Roll it Over
TTITLE7=Honeyboy Edwards and James Cotton - Crossroads
TTITLE8=Otis Rush - Old Love
TTITLE9=Pinetop Perkins, John Hammond and Bob Margolin - Too Bad
TTITLE10=Ann Peebles - Tears in Heaven
TTITLE11=Eric Gales and Derek Trucks - Layla
EXTD=YEAR: 1999 ID3G:   0
EXTT0=
EXTT1=
EXTT2=
EXTT3=
EXTT4=
EXTT5=
EXTT6=
EXTT7=
EXTT8=
EXTT9=
EXTT10=
EXTT11=
PLAYORDER=
